# xmcd
#
# Track frame offsets: 
#        150
#        26125
#        44853
#        62727
#        90708
#        115986
#        141578
#        163082
#        188836
#        221438
#        234688
#
# Disc length: 3427 seconds
#
# Revision: 0
# Processed by: cddbd v1.5.2PL0 Copyright (c) Steve Scherf et al.
# Submitted via: ExactAudioCopyFreeDBPlugin 1.0
#
DISCID=aa0d610b
DTITLE=The Bee Eaters - The Bee Eaters
DYEAR=1900
DGENRE=Bluegrass
TTITLE0=Stoneground
TTITLE1=The Tree Climber
TTITLE2=B Minor
TTITLE3=Tunnels
TTITLE4=Crying in the Rain
TTITLE5=30 Minutes
TTITLE6=Ploska
TTITLE7=Daniel
TTITLE8=D Over Everything
TTITLE9=Eleanor Rigby
TTITLE10=The Flight of Miss Partridge
EXTD=
EXTT0=
EXTT1=
EXTT2=
EXTT3=
EXTT4=
EXTT5=
EXTT6=
EXTT7=
EXTT8=
EXTT9=
EXTT10=
PLAYORDER=
